<svg viewBox="0 0 400 400" xmlns="http://www.w3.org/2000/svg" fill-rule="evenodd" clip-rule="evenodd" stroke-linejoin="round" stroke-miterlimit="1.414"><path fill="#fff" d="M-225-110h905v716h-905z"/><path d="M400 400H0V181.793C10.845 173.16 24.575 168 39.5 168c4.348 0 8.594.438 12.697 1.272-7.858-8.114-12.697-19.17-12.697-31.345 0-24.877 20.197-45.073 45.073-45.073 24.877 0 45.073 20.196 45.073 45.073 0 7.335-1.756 14.262-4.87 20.386 12.007.946 23.04 5.375 32.09 12.276-.003-.283-.004-.565-.004-.847 0-40.508 32.887-73.396 73.395-73.396 23.454 0 44.353 11.025 57.793 28.17 2.898-.26 5.832-.395 8.798-.395 20.524 0 39.566 6.4 55.238 17.308 2.83-3.16 5.862-6.134 9.08-8.9-14.03-6.552-23.76-20.79-23.76-37.284 0-22.697 18.427-41.124 41.124-41.124 7.866 0 15.22 2.214 21.47 6.052V400zM89.837 272.253l.072.05.015-.067c-.198-.112-.395-.225-.59-.34l.502.357zM297.792 26.887c16.345 0 29.614 13.27 29.614 29.613 0 16.344-13.27 29.613-29.614 29.613S268.18 72.843 268.18 56.5c0-16.344 13.268-29.613 29.612-29.613zm-153.34 10c8.173 0 14.808 6.634 14.808 14.806 0 8.172-6.635 14.807-14.807 14.807s-14.807-6.635-14.807-14.807 6.635-14.806 14.807-14.806zM400 0v26.018c-3.802 4.413-9.43 7.21-15.707 7.21-11.44 0-20.727-9.29-20.727-20.728 0-4.693 1.564-9.024 4.198-12.5H400z" fill="#EFDA5B"/><g fill="#323330" fill-rule="nonzero"><path d="M161.757 367.877c33.002 0 55.625-17.566 55.625-56.157V184.502h-37.26v126.686c0 18.63-7.72 23.42-19.962 23.42-12.775 0-18.098-8.782-23.953-19.162l-30.34 18.364c8.782 18.63 26.08 34.067 55.89 34.067zM305.476 367.877c35.398 0 61.747-18.364 61.747-51.9 0-31.138-17.832-44.978-49.504-58.55l-9.316-3.993c-15.97-6.92-22.89-11.445-22.89-22.623 0-9.048 6.92-15.968 17.833-15.968 10.646 0 17.566 4.525 23.954 15.97l29.01-18.63c-12.242-21.56-29.276-29.81-52.963-29.81-33.268 0-54.56 21.292-54.56 49.238 0 30.34 17.832 44.712 44.713 56.157l9.315 3.992c17.033 7.45 27.147 11.976 27.147 24.75 0 10.647-9.847 18.365-25.284 18.365-18.364 0-28.744-9.58-36.728-22.623l-30.34 17.566c10.91 21.558 33.267 38.06 67.866 38.06z"/></g></svg>