<svg viewBox="0 0 423 444" xmlns="http://www.w3.org/2000/svg" fill-rule="evenodd" clip-rule="evenodd" stroke-linejoin="round" stroke-miterlimit="1.414"><path d="M600 517H200V298.793C210.845 290.16 224.575 285 239.5 285c4.348 0 8.594.438 12.697 1.272-7.858-8.114-12.697-19.17-12.697-31.345 0-24.877 20.197-45.073 45.073-45.073 24.877 0 45.073 20.196 45.073 45.073 0 7.335-1.756 14.262-4.87 20.386 12.007.946 23.04 5.375 32.09 12.276-.003-.283-.004-.565-.004-.847 0-40.508 32.887-73.396 73.395-73.396 23.454 0 44.353 11.025 57.793 28.17 2.898-.26 5.832-.395 8.798-.395 20.524 0 39.566 6.4 55.238 17.308 2.83-3.16 5.862-6.134 9.08-8.9-14.03-6.552 38.834 11.8 38.834 11.8V517zM289.837 389.253l.072.05.015-.067c-.198-.112-.395-.225-.59-.34l.502.357z" fill="url(#a)" transform="translate(-200 -74)"/><circle cx="508.5" cy="157.5" r="39.5" fill="url(#b)" transform="translate(-79.393 43.896) scale(.58386)"/><circle cx="508.5" cy="157.5" r="39.5" fill="url(#c)" transform="translate(53.232 49.802) scale(.58386)"/><circle cx="508.5" cy="157.5" r="39.5" fill="url(#d)" transform="translate(-72.706 -10.792) scale(.70886)"/><circle cx="508.5" cy="157.5" r="39.5" fill="url(#e)" transform="matrix(.51978 0 0 .51978 36.52 79.582)"/><circle cx="508.5" cy="157.5" r="39.5" fill="url(#f)" transform="translate(-684.763 -77.1) scale(1.79747)"/><circle cx="508.5" cy="157.5" r="39.5" fill="url(#g)" transform="matrix(.519 0 0 .519 121.595 -25.24)"/><path d="M200 263.924c21.01-16.4 47.434-26.174 76.125-26.174C344.493 237.75 400 293.257 400 361.625S344.493 485.5 276.125 485.5c-28.69 0-55.116-9.775-76.125-26.174V263.924z" fill="url(#h)" transform="translate(-166.902 3.345) scale(.8345)"/><circle cx="508.5" cy="157.5" r="39.5" fill="url(#i)" transform="matrix(.3038 0 0 .3038 200.742 -35.848)"/><circle cx="508.5" cy="157.5" r="39.5" fill="url(#j)" transform="translate(-525.85 9.23) scale(1.36234)"/><circle cx="508.5" cy="157.5" r="39.5" fill="url(#k)" transform="matrix(.97864 0 0 .97864 -247.076 17.843)"/><circle cx="508.5" cy="157.5" r="39.5" fill="url(#l)" transform="matrix(.3833 0 0 .3833 141.588 28.342)"/><path d="M600 272.572c-7.12 3.694-15.207 5.782-23.777 5.782-28.562 0-51.75-23.19-51.75-51.75 0-28.562 23.188-51.75 51.75-51.75 8.57 0 16.656 2.087 23.777 5.782v91.936z" fill="url(#m)" transform="translate(-392.428 -66.015) scale(1.3207)"/><circle cx="508.5" cy="157.5" r="39.5" fill="url(#n)" transform="matrix(.9272 0 0 .9272 -85.99 32.35)"/><path d="M367.857 501c-4.33-13.322-6.67-27.538-6.67-42.296 0-75.56 61.346-136.906 136.907-136.906 40.454 0 76.834 17.584 101.906 45.52V501H367.857z" fill="url(#o)" transform="translate(-272.982 -117.94) scale(1.12164)"/><g fill="#2C2E28" fill-rule="nonzero"><path d="M161.757 410.877c33.002 0 55.625-17.566 55.625-56.157V227.502h-37.26v126.686c0 18.63-7.72 23.42-19.962 23.42-12.775 0-18.098-8.782-23.953-19.162l-30.34 18.364c8.782 18.63 26.08 34.067 55.89 34.067zM305.476 410.877c35.398 0 61.747-18.364 61.747-51.9 0-31.138-17.832-44.978-49.504-58.55l-9.316-3.993c-15.97-6.92-22.89-11.445-22.89-22.623 0-9.048 6.92-15.968 17.833-15.968 10.646 0 17.566 4.525 23.954 15.97l29.01-18.63c-12.242-21.56-29.276-29.81-52.963-29.81-33.268 0-54.56 21.292-54.56 49.238 0 30.34 17.832 44.712 44.713 56.157l9.315 3.992c17.033 7.45 27.147 11.976 27.147 24.75 0 10.647-9.847 18.365-25.284 18.365-18.364 0-28.744-9.58-36.728-22.623l-30.34 17.566c10.91 21.558 33.267 38.06 67.866 38.06z"/></g><defs><linearGradient id="a" x2="1" gradientUnits="userSpaceOnUse" gradientTransform="matrix(229 344.5 -344.5 229 250 158)"><stop offset="0" stop-color="#EFCD5B"/><stop offset="1" stop-color="#F1A83B"/></linearGradient><linearGradient id="b" x2="1" gradientUnits="userSpaceOnUse" gradientTransform="rotate(51 107.4 565.2) scale(83.9)"><stop offset="0" stop-color="#EFCD5B"/><stop offset="1" stop-color="#F19C3B"/></linearGradient><linearGradient id="c" x2="1" gradientUnits="userSpaceOnUse" gradientTransform="rotate(51 107.4 565.2) scale(83.9)"><stop offset="0" stop-color="#EFCD5B"/><stop offset="1" stop-color="#F19C3B"/></linearGradient><linearGradient id="d" x2="1" gradientUnits="userSpaceOnUse" gradientTransform="scale(84.5) rotate(47 1.1 7.2)"><stop offset="0" stop-color="#EFCD5B"/><stop offset="1" stop-color="#F1963B"/></linearGradient><linearGradient id="e" x2="1" gradientUnits="userSpaceOnUse" gradientTransform="scale(84.5) rotate(47 1.1 7.2)"><stop offset="0" stop-color="#EFCD5B"/><stop offset="1" stop-color="#F1963B"/></linearGradient><linearGradient id="f" x2="1" gradientUnits="userSpaceOnUse" gradientTransform="scale(98) rotate(49 1.1 6.2)"><stop offset="0" stop-color="#F0CA46"/><stop offset="1" stop-color="#F1B042"/></linearGradient><linearGradient id="g" x2="1" gradientUnits="userSpaceOnUse" gradientTransform="scale(88.4) rotate(49 1.2 6.6)"><stop offset="0" stop-color="#EFCD5B"/><stop offset="1" stop-color="#F16E3B"/></linearGradient><linearGradient id="h" x2="1" gradientUnits="userSpaceOnUse" gradientTransform="matrix(186 240.3 -194 230.4 225 263.1)"><stop offset="0" stop-color="#EFD55B"/><stop offset="1" stop-color="#F1A83B"/></linearGradient><linearGradient id="i" x2="1" gradientUnits="userSpaceOnUse" gradientTransform="scale(106.2) rotate(46 .9 5.9)"><stop offset="0" stop-color="#EFCD5B"/><stop offset="1" stop-color="#F1433B"/></linearGradient><linearGradient id="j" x2="1" gradientUnits="userSpaceOnUse" gradientTransform="scale(106.2) rotate(46 .9 5.9)"><stop offset="0" stop-color="#EFD45B"/><stop offset="1" stop-color="#F1A83B"/></linearGradient><linearGradient id="k" x2="1" gradientUnits="userSpaceOnUse" gradientTransform="rotate(47 95.3 610.7) scale(86.4)"><stop offset="0" stop-color="#EFCD5B"/><stop offset="1" stop-color="#F1AF3B"/></linearGradient><linearGradient id="l" x2="1" gradientUnits="userSpaceOnUse" gradientTransform="rotate(51 107.4 565.2) scale(83.9)"><stop offset="0" stop-color="#EFCD5B"/><stop offset="1" stop-color="#F1713B"/></linearGradient><linearGradient id="m" x2="1" gradientUnits="userSpaceOnUse" gradientTransform="scale(115) rotate(56 .9 5.1)"><stop offset="0" stop-color="#EFC25B"/><stop offset="1" stop-color="#F1B042"/></linearGradient><linearGradient id="n" x2="1" gradientUnits="userSpaceOnUse" gradientTransform="rotate(51 107.4 565.2) scale(83.9)"><stop offset="0" stop-color="#EFCD5B"/><stop offset="1" stop-color="#F1A33B"/></linearGradient><linearGradient id="o" x2="1" gradientUnits="userSpaceOnUse" gradientTransform="matrix(222.1 173.8 -231.6 166.7 391 340.2)"><stop offset="0" stop-color="#EFCA59"/><stop offset="1" stop-color="#F1A83B"/></linearGradient></defs></svg>